<svg width="15" height="15" viewBox="0 0 15 15" fill="none" xmlns="http://www.w3.org/2000/svg">
<path d="M13.9739 2.18465L13.599 1.86372C12.9768 1.33087 12.0417 1.39027 11.4923 1.99733L5.22124 8.92633L3.32829 7.30172C2.7067 6.76827 1.7715 6.82647 1.22147 7.43288L0.890021 7.79836C0.62123 8.09456 0.481668 8.4853 0.501935 8.88442C0.522403 9.28332 0.700988 9.65781 0.998696 9.92555L4.46857 13.0919C4.76899 13.373 5.1716 13.5196 5.58312 13.4979C5.99465 13.4762 6.37939 13.2878 6.64821 12.9765L14.1343 4.30871C14.3958 4.00588 14.5259 3.61196 14.4957 3.21366C14.4656 2.81507 14.2779 2.44499 13.9739 2.18465Z" fill="#575757"/>
</svg>
