<svg width="48" height="58" viewBox="0 0 48 58" fill="none" xmlns="http://www.w3.org/2000/svg">
<g clip-path="url(#clip0_3981_6720)">
<path d="M47.9306 11.9766C47.7905 7.65806 44.9657 3.90166 40.8822 2.59938C29.7071 -0.964878 18.4675 -0.833734 7.18348 2.80575C3.23907 4.07856 0.473755 7.67128 0.217781 11.8414C-0.0966422 16.9418 -0.208505 24.5369 0.85973 33.0247C2.79464 48.3959 15.8553 51.7304 15.8553 51.7304L12.2274 57.9928C21.6107 58.2276 41.0626 52.5183 46.5509 36.2331C46.9349 35.0935 47.1707 33.9071 47.2715 32.7075C48.0424 23.5722 48.0807 16.6165 47.9306 11.9766ZM31.6823 45.6795C30.7078 47.5226 29.7363 48.9703 28.7699 50.0235C27.8034 51.0767 26.7453 51.8351 25.5944 52.2997C24.4445 52.7643 23.1254 53.0347 21.6359 53.11C20.5717 53.1638 19.5055 53.0622 18.4392 52.806C17.372 52.5488 16.5184 52.1991 15.8553 51.7304L19.0389 45.9255C19.4561 46.2153 19.9176 46.442 20.4235 46.6087C20.9294 46.7744 21.4535 46.8435 21.9977 46.8161C22.6366 46.7836 23.1485 46.6077 23.5365 46.2895C23.7895 46.079 23.8973 45.7385 23.8117 45.4193L18.7033 26.3252L26.6818 25.9216L29.1881 36.3409L34.7671 25.5119L42.6045 25.1154L31.6823 45.6795Z" fill="url(#paint0_linear_3981_6720)"/>
</g>
<defs>
<linearGradient id="paint0_linear_3981_6720" x1="0.000244141" y1="-0.000320435" x2="56.977" y2="47.153" gradientUnits="userSpaceOnUse">
<stop stop-color="#01979F"/>
<stop offset="1" stop-color="#01767C"/>
</linearGradient>
<clipPath id="clip0_3981_6720">
<rect width="48" height="58" fill="white"/>
</clipPath>
</defs>
</svg>
