<svg width="170" height="36" viewBox="0 0 170 36" fill="none" xmlns="http://www.w3.org/2000/svg">
<path d="M166.162 26.055C164.737 26.055 163.627 25.695 162.832 24.975C162.037 24.24 161.639 23.1525 161.639 21.7125V11.0925H165.149V21.6675C165.149 22.1775 165.284 22.575 165.554 22.86C165.824 23.13 166.192 23.265 166.657 23.265C167.212 23.265 167.684 23.115 168.074 22.815L169.019 25.29C168.659 25.545 168.224 25.74 167.714 25.875C167.219 25.995 166.702 26.055 166.162 26.055ZM159.772 16.47V13.77H168.164V16.47H159.772Z" fill="#2B2B36"/>
<path d="M153.025 26.055C151.645 26.055 150.43 25.785 149.38 25.245C148.345 24.705 147.542 23.97 146.972 23.04C146.402 22.095 146.117 21.0225 146.117 19.8225C146.117 18.6075 146.395 17.535 146.95 16.605C147.52 15.66 148.292 14.925 149.267 14.4C150.242 13.86 151.345 13.59 152.575 13.59C153.76 13.59 154.825 13.845 155.77 14.355C156.73 14.85 157.487 15.57 158.042 16.515C158.597 17.445 158.875 18.5625 158.875 19.8675C158.875 20.0025 158.867 20.16 158.852 20.34C158.837 20.505 158.822 20.6625 158.807 20.8125H148.975V18.765H156.962L155.612 19.3725C155.612 18.7425 155.485 18.195 155.23 17.73C154.975 17.265 154.622 16.905 154.172 16.65C153.722 16.38 153.197 16.245 152.597 16.245C151.997 16.245 151.465 16.38 151 16.65C150.55 16.905 150.197 17.2725 149.942 17.7525C149.687 18.2175 149.56 18.7725 149.56 19.4175V19.9575C149.56 20.6175 149.702 21.2025 149.987 21.7125C150.287 22.2075 150.7 22.59 151.225 22.86C151.765 23.115 152.395 23.2425 153.115 23.2425C153.76 23.2425 154.322 23.145 154.802 22.95C155.297 22.755 155.747 22.4625 156.152 22.0725L158.02 24.0975C157.465 24.7275 156.767 25.215 155.927 25.56C155.087 25.89 154.12 26.055 153.025 26.055Z" fill="#2B2B36"/>
<path d="M137.525 25.875V13.77H140.878V17.19L140.405 16.2C140.765 15.345 141.343 14.7 142.138 14.265C142.933 13.815 143.9 13.59 145.04 13.59V16.83C144.89 16.815 144.755 16.8075 144.635 16.8075C144.515 16.7925 144.388 16.785 144.253 16.785C143.293 16.785 142.513 17.0625 141.913 17.6175C141.328 18.1575 141.035 19.005 141.035 20.16V25.875H137.525Z" fill="#2B2B36"/>
<path d="M130.082 26.055C128.777 26.055 127.614 25.7925 126.594 25.2675C125.574 24.7275 124.772 23.985 124.187 23.04C123.617 22.095 123.332 21.0225 123.332 19.8225C123.332 18.6075 123.617 17.535 124.187 16.605C124.772 15.66 125.574 14.925 126.594 14.4C127.614 13.86 128.777 13.59 130.082 13.59C131.357 13.59 132.467 13.86 133.412 14.4C134.357 14.925 135.054 15.6825 135.504 16.6725L132.782 18.135C132.467 17.565 132.069 17.145 131.589 16.875C131.124 16.605 130.614 16.47 130.059 16.47C129.459 16.47 128.919 16.605 128.439 16.875C127.959 17.145 127.577 17.5275 127.292 18.0225C127.022 18.5175 126.887 19.1175 126.887 19.8225C126.887 20.5275 127.022 21.1275 127.292 21.6225C127.577 22.1175 127.959 22.5 128.439 22.77C128.919 23.04 129.459 23.175 130.059 23.175C130.614 23.175 131.124 23.0475 131.589 22.7925C132.069 22.5225 132.467 22.095 132.782 21.51L135.504 22.995C135.054 23.97 134.357 24.7275 133.412 25.2675C132.467 25.7925 131.357 26.055 130.082 26.055Z" fill="#2B2B36"/>
<path d="M116.045 26.055C114.665 26.055 113.45 25.785 112.4 25.245C111.365 24.705 110.562 23.97 109.992 23.04C109.422 22.095 109.137 21.0225 109.137 19.8225C109.137 18.6075 109.415 17.535 109.97 16.605C110.54 15.66 111.312 14.925 112.287 14.4C113.262 13.86 114.365 13.59 115.595 13.59C116.78 13.59 117.845 13.845 118.79 14.355C119.75 14.85 120.507 15.57 121.062 16.515C121.617 17.445 121.895 18.5625 121.895 19.8675C121.895 20.0025 121.887 20.16 121.872 20.34C121.857 20.505 121.842 20.6625 121.827 20.8125H111.995V18.765H119.982L118.632 19.3725C118.632 18.7425 118.505 18.195 118.25 17.73C117.995 17.265 117.642 16.905 117.192 16.65C116.742 16.38 116.217 16.245 115.617 16.245C115.017 16.245 114.485 16.38 114.02 16.65C113.57 16.905 113.217 17.2725 112.962 17.7525C112.707 18.2175 112.58 18.7725 112.58 19.4175V19.9575C112.58 20.6175 112.722 21.2025 113.007 21.7125C113.307 22.2075 113.72 22.59 114.245 22.86C114.785 23.115 115.415 23.2425 116.135 23.2425C116.78 23.2425 117.342 23.145 117.822 22.95C118.317 22.755 118.767 22.4625 119.172 22.0725L121.04 24.0975C120.485 24.7275 119.787 25.215 118.947 25.56C118.107 25.89 117.14 26.055 116.045 26.055Z" fill="#2B2B36"/>
<path d="M101.112 26.145C99.8518 26.145 98.6443 25.98 97.4893 25.65C96.3343 25.305 95.4043 24.8625 94.6993 24.3225L95.9368 21.5775C96.6118 22.0575 97.4068 22.455 98.3218 22.77C99.2518 23.07 100.189 23.22 101.134 23.22C101.854 23.22 102.432 23.1525 102.867 23.0175C103.317 22.8675 103.647 22.665 103.857 22.41C104.067 22.155 104.172 21.8625 104.172 21.5325C104.172 21.1125 104.007 20.7825 103.677 20.5425C103.347 20.2875 102.912 20.085 102.372 19.935C101.832 19.77 101.232 19.62 100.572 19.485C99.9268 19.335 99.2743 19.155 98.6143 18.945C97.9693 18.735 97.3768 18.465 96.8368 18.135C96.2968 17.805 95.8543 17.37 95.5093 16.83C95.1793 16.29 95.0143 15.6 95.0143 14.76C95.0143 13.86 95.2543 13.0425 95.7343 12.3075C96.2293 11.5575 96.9643 10.965 97.9393 10.53C98.9293 10.08 100.167 9.855 101.652 9.855C102.642 9.855 103.617 9.975 104.577 10.215C105.537 10.44 106.384 10.785 107.119 11.25L105.994 14.0175C105.259 13.5975 104.524 13.29 103.789 13.095C103.054 12.885 102.334 12.78 101.629 12.78C100.924 12.78 100.347 12.8625 99.8968 13.0275C99.4468 13.1925 99.1243 13.41 98.9293 13.68C98.7343 13.935 98.6368 14.235 98.6368 14.58C98.6368 14.985 98.8018 15.315 99.1318 15.57C99.4618 15.81 99.8968 16.005 100.437 16.155C100.977 16.305 101.569 16.455 102.214 16.605C102.874 16.755 103.527 16.9275 104.172 17.1225C104.832 17.3175 105.432 17.58 105.972 17.91C106.512 18.24 106.947 18.675 107.277 19.215C107.622 19.755 107.794 20.4375 107.794 21.2625C107.794 22.1475 107.547 22.9575 107.052 23.6925C106.557 24.4275 105.814 25.02 104.824 25.47C103.849 25.92 102.612 26.145 101.112 26.145Z" fill="#2B2B36"/>
<path d="M86.1752 25.875V13.77H89.5277V17.19L89.0552 16.2C89.4152 15.345 89.9927 14.7 90.7877 14.265C91.5827 13.815 92.5502 13.59 93.6902 13.59V16.83C93.5402 16.815 93.4052 16.8075 93.2852 16.8075C93.1652 16.7925 93.0377 16.785 92.9027 16.785C91.9427 16.785 91.1627 17.0625 90.5627 17.6175C89.9777 18.1575 89.6852 19.005 89.6852 20.16V25.875H86.1752Z" fill="#2B2B36"/>
<path d="M75.8359 26.055C74.8309 26.055 73.9309 25.86 73.1359 25.47C72.3559 25.08 71.7484 24.4875 71.3134 23.6925C70.8784 22.8825 70.6609 21.855 70.6609 20.61V13.77H74.1709V20.0925C74.1709 21.0975 74.3809 21.84 74.8009 22.32C75.2359 22.785 75.8434 23.0175 76.6234 23.0175C77.1634 23.0175 77.6434 22.905 78.0634 22.68C78.4834 22.44 78.8134 22.08 79.0534 21.6C79.2934 21.105 79.4134 20.49 79.4134 19.755V13.77H82.9234V25.875H79.5934V22.545L80.2009 23.5125C79.7959 24.3525 79.1959 24.99 78.4009 25.425C77.6209 25.845 76.7659 26.055 75.8359 26.055Z" fill="#2B2B36"/>
<path d="M61.7447 26.055C60.4547 26.055 59.3072 25.785 58.3022 25.245C57.3122 24.705 56.5247 23.97 55.9397 23.04C55.3697 22.095 55.0847 21.0225 55.0847 19.8225C55.0847 18.6075 55.3697 17.535 55.9397 16.605C56.5247 15.66 57.3122 14.925 58.3022 14.4C59.3072 13.86 60.4547 13.59 61.7447 13.59C63.0197 13.59 64.1597 13.86 65.1647 14.4C66.1697 14.925 66.9572 15.6525 67.5272 16.5825C68.0972 17.5125 68.3822 18.5925 68.3822 19.8225C68.3822 21.0225 68.0972 22.095 67.5272 23.04C66.9572 23.97 66.1697 24.705 65.1647 25.245C64.1597 25.785 63.0197 26.055 61.7447 26.055ZM61.7447 23.175C62.3297 23.175 62.8547 23.04 63.3197 22.77C63.7847 22.5 64.1522 22.1175 64.4222 21.6225C64.6922 21.1125 64.8272 20.5125 64.8272 19.8225C64.8272 19.1175 64.6922 18.5175 64.4222 18.0225C64.1522 17.5275 63.7847 17.145 63.3197 16.875C62.8547 16.605 62.3297 16.47 61.7447 16.47C61.1597 16.47 60.6347 16.605 60.1697 16.875C59.7047 17.145 59.3297 17.5275 59.0447 18.0225C58.7747 18.5175 58.6397 19.1175 58.6397 19.8225C58.6397 20.5125 58.7747 21.1125 59.0447 21.6225C59.3297 22.1175 59.7047 22.5 60.1697 22.77C60.6347 23.04 61.1597 23.175 61.7447 23.175Z" fill="#2B2B36"/>
<path d="M46.2825 25.875V19.44L47.115 21.645L40.185 10.125H44.055L49.365 18.9675H47.1375L52.47 10.125H56.0475L49.1175 21.645L49.9275 19.44V25.875H46.2825Z" fill="#2B2B36"/>
<g clip-path="url(#clip0_4610_8172)">
<path d="M29.7263 7.43366C29.6394 4.75315 27.8875 2.4216 25.3549 1.61328C18.4242 -0.599015 11.4535 -0.517616 4.45523 1.74138C2.00894 2.53139 0.293912 4.76136 0.135159 7.34973C-0.0598441 10.5155 -0.12922 15.2297 0.533291 20.4979C1.73331 30.0387 9.83344 32.1084 9.83344 32.1084L7.58341 35.9954C13.4029 36.1412 25.4668 32.5974 28.8706 22.4894C29.1088 21.782 29.255 21.0457 29.3175 20.3011C29.7956 14.6309 29.8194 10.3136 29.7263 7.43366ZM19.6492 28.3527C19.0448 29.4967 18.4423 30.3952 17.8429 31.049C17.2436 31.7027 16.5873 32.1734 15.8735 32.4618C15.1604 32.7501 14.3423 32.918 13.4185 32.9647C12.7585 32.9981 12.0972 32.935 11.436 32.776C10.7741 32.6164 10.2447 32.3993 9.83344 32.1084L11.8078 28.5054C12.0666 28.6852 12.3529 28.8259 12.6666 28.9294C12.9804 29.0323 13.3054 29.0752 13.6429 29.0581C14.0391 29.0379 14.3566 28.9288 14.5973 28.7313C14.7541 28.6007 14.821 28.3893 14.7679 28.1911L11.5997 16.3396L16.5479 16.0891L18.1023 22.5563L21.5624 15.8348L26.4231 15.5887L19.6492 28.3527Z" fill="url(#paint0_linear_4610_8172)"/>
</g>
<defs>
<linearGradient id="paint0_linear_4610_8172" x1="0.000244141" y1="-0.000324249" x2="35.3598" y2="29.2394" gradientUnits="userSpaceOnUse">
<stop stop-color="#01979F"/>
<stop offset="1" stop-color="#01767C"/>
</linearGradient>
<clipPath id="clip0_4610_8172">
<rect width="29.7692" height="36" fill="white"/>
</clipPath>
</defs>
</svg>
